<?xml version="1.0" encoding="UTF-8"?><svg xmlns="http://www.w3.org/2000/svg" xmlns:xlink="http://www.w3.org/1999/xlink" height="5208.7" preserveAspectRatio="xMidYMid meet" version="1.0" viewBox="-4.3 285.2 8634.0 5208.7" width="8634.0" zoomAndPan="magnify"><defs><linearGradient id="a" xlink:actuate="onLoad" xlink:show="other" xlink:type="simple" xmlns:xlink="http://www.w3.org/1999/xlink"><stop offset="1" stop-color="#7abaf9"/><stop offset="1" stop-color="#854506"/></linearGradient></defs><g fill="url(#a)" stroke-width="2.587"><path d="m4626.8 336.39c-877.09 0-1618 630.42-1848.5 1491.3-95.963-61.159-206.36-96.347-324.4-96.347-365.03 0-661.22 333.83-661.22 745.25 0 4.1909-0.061523 8.1787 0 12.352-109.35-25.249-223.99-39.527-342.66-39.527-723.54 0-1310.7 501.15-1310.7 1118.3 0 617.13 587.2 1118.3 1310.7 1118.3 286.58 0 551.37-79.21 767.16-212.46 128.88 434.59 492.56 748.54 921.32 748.54 290.54 0 551.05-144.18 729.16-372.21 172.79 101.87 375.99 160.58 593.27 160.58 295.63 0 565.42-108.39 767.89-286.57 272.83 319.15 674.02 521.26 1121.5 521.26 548.98 0 1028.8-304.44 1286.6-755.95 38.819 6.4116 78.646 9.8818 119.09 9.8818 436.73 0 790.54-387.11 790.54-864.65s-353.81-865.48-790.54-865.48c-78.149 0-153.71 13.119-225.03 36.233-235.33-312.66-587.19-529.42-989.27-582.2-82.248-1056.2-908.29-1886.6-1915-1886.6z" stroke="#000"/><path d="m4584.9 289.45c-801.69 2.7026-1585.5 606.28-1834.6 1468.3-362.6-207.25-849.66 32.502-967.35 468.56-19.28 66.124-31.937 135.45-35.07 205.05-568.9-112.92-1241.7 96.916-1546.7 681.84-204.01 381.62-104.86 899.27 185.58 1187.5 470.99 504.86 1242.2 558.19 1806.8 258.57 183.2 551.45 777.6 863.42 1272 660.43 157.46-57.418 300.93-171.18 415-298.1 424.05 230.55 960.88 189.58 1343.6-122.7 613.92 694.92 1733.7 666.63 2311-69.996 68.942-53.065 88.632-208.28 189.23-172.93 466.31 36.469 905.39-433.97 867.98-965.12-15.253-547.06-516.99-966.2-987.81-853.95-97.106 45.35-134.3-116.46-214.07-157.28-225.78-223.56-525.46-345.38-806.61-406.8-85.687-953.94-817.77-1734.4-1650.2-1858.3-115.05-19.637-232.1-28.073-348.75-25.036z" stroke="#a3ced5"/></g></svg>